<?xml version="1.0" encoding="UTF-8" standalone="no"?>
<svg xmlns:dc="http://purl.org/dc/elements/1.1/" xmlns:cc="http://creativecommons.org/ns#" xmlns:rdf="http://www.w3.org/1999/02/22-rdf-syntax-ns#" xmlns:svg="http://www.w3.org/2000/svg" xmlns="http://www.w3.org/2000/svg" xmlns:sodipodi="http://sodipodi.sourceforge.net/DTD/sodipodi-0.dtd" xmlns:inkscape="http://www.inkscape.org/namespaces/inkscape" width="64px" height="64px" id="svg4193" version="1.1" inkscape:version="0.48.4 r9939" sodipodi:docname="6.svg">
  <defs id="defs4195"/>
  <sodipodi:namedview id="base" pagecolor="#ffffff" bordercolor="#666666" borderopacity="1.0" inkscape:pageopacity="0.0" inkscape:pageshadow="2" inkscape:zoom="16" inkscape:cx="-6.5692368" inkscape:cy="6.8228055" inkscape:document-units="px" inkscape:current-layer="g5023" showgrid="true" inkscape:window-width="1366" inkscape:window-height="705" inkscape:window-x="-8" inkscape:window-y="-8" inkscape:window-maximized="1" inkscape:snap-bbox="true" inkscape:bbox-paths="true" inkscape:bbox-nodes="true" inkscape:snap-bbox-edge-midpoints="true" inkscape:snap-bbox-midpoints="true">
    <inkscape:grid type="xygrid" id="grid4201" empspacing="5" visible="true" enabled="true" snapvisiblegridlinesonly="true"/>
  </sodipodi:namedview>
  
  <g inkscape:label="Layer 1" inkscape:groupmode="layer" id="layer1" transform="translate(0,-1036.3622)">
    <g transform="translate(-110.31406,-68.175491)" id="g4774">
      <g style="font-size:11.11111259px;font-style:normal;font-weight:normal;line-height:125%;letter-spacing:0px;word-spacing:0px;fill:#3bc689;fill-opacity:1;stroke:none;font-family:sans-serif" id="text10164-8-51"/>
      <g id="g4273" transform="translate(110.31406,61.625073)">
        <g id="g5023" transform="translate(4.029e-4,6.5504267)">
          <path style="font-size:medium;font-style:normal;font-variant:normal;font-weight:normal;font-stretch:normal;text-indent:0;text-align:start;text-decoration:none;line-height:normal;letter-spacing:normal;word-spacing:normal;text-transform:none;direction:ltr;block-progression:tb;writing-mode:lr-tb;text-anchor:start;baseline-shift:baseline;color:#000000;fill:#000000;fill-opacity:1;stroke:none;stroke-width:0.99999994px;marker:none;visibility:visible;display:inline;overflow:visible;enable-background:accumulate;font-family:Sans;-inkscape-font-specification:Sans" d="M 4.34375 2.8125 L 3.84375 3.1875 L 0 6.1875 L 0.625 6.96875 L 4 4.34375 L 5.125 6.53125 L 5.375 7.09375 L 5.875 6.71875 L 8.90625 4.34375 L 10 6.53125 L 10.28125 7.09375 L 10.75 6.71875 L 13.78125 4.34375 L 15.125 6.90625 L 16 6.46875 L 14.40625 3.34375 L 14.125 2.8125 L 13.65625 3.1875 L 10.625 5.5625 L 9.5 3.34375 L 9.21875 2.8125 L 8.75 3.1875 L 5.71875 5.5625 L 4.59375 3.34375 L 4.34375 2.8125 z M 4.34375 8.53125 L 3.84375 8.90625 L 0 11.90625 L 0.625 12.6875 L 4 10.0625 L 5.125 12.25 L 5.375 12.8125 L 5.875 12.4375 L 8.90625 10.0625 L 10 12.25 L 10.28125 12.8125 L 10.75 12.4375 L 13.78125 10.0625 L 15.125 12.625 L 16 12.1875 L 14.40625 9.0625 L 14.125 8.53125 L 13.65625 8.90625 L 10.625 11.25 L 9.5 9.0625 L 9.21875 8.53125 L 8.75 8.90625 L 5.71875 11.25 L 4.59375 9.0625 L 4.34375 8.53125 z " transform="translate(-4.029e-4,1036.3622)" id="path4761"/>
        </g>
      </g>
    </g>
  </g>

	
	
	<metadata>
		<rdf:RDF xmlns:rdf="http://www.w3.org/1999/02/22-rdf-syntax-ns#" xmlns:rdfs="http://www.w3.org/2000/01/rdf-schema#" xmlns:dc="http://purl.org/dc/elements/1.1/">
			<rdf:Description about="https://iconscout.com/legal#licenses" dc:title="Aquarius, Zodiac, Horoscope, Astrology, Sign, Symbol" dc:description="Aquarius, Zodiac, Horoscope, Astrology, Sign, Symbol" dc:publisher="Iconscout" dc:date="2016-12-14" dc:format="image/svg+xml" dc:language="en">
				<dc:creator>
					<rdf:Bag>
						<rdf:li>Mohit Gandhi</rdf:li>
					</rdf:Bag>
				</dc:creator>
			</rdf:Description>
		</rdf:RDF>
    </metadata></svg>
