<?xml version="1.0" encoding="UTF-8" standalone="no"?>
<svg xmlns:dc="http://purl.org/dc/elements/1.1/" xmlns:cc="http://creativecommons.org/ns#" xmlns:rdf="http://www.w3.org/1999/02/22-rdf-syntax-ns#" xmlns:svg="http://www.w3.org/2000/svg" xmlns="http://www.w3.org/2000/svg" xmlns:sodipodi="http://sodipodi.sourceforge.net/DTD/sodipodi-0.dtd" xmlns:inkscape="http://www.inkscape.org/namespaces/inkscape" width="64px" height="64px" id="svg4193" version="1.1" inkscape:version="0.48.4 r9939" sodipodi:docname="8.svg">
  <defs id="defs4195"/>
  <sodipodi:namedview id="base" pagecolor="#ffffff" bordercolor="#666666" borderopacity="1.0" inkscape:pageopacity="0.0" inkscape:pageshadow="2" inkscape:zoom="8" inkscape:cx="-27.515686" inkscape:cy="7.382152" inkscape:document-units="px" inkscape:current-layer="g5023" showgrid="true" inkscape:window-width="1366" inkscape:window-height="705" inkscape:window-x="-8" inkscape:window-y="-8" inkscape:window-maximized="1" inkscape:snap-bbox="true" inkscape:bbox-paths="true" inkscape:bbox-nodes="true" inkscape:snap-bbox-edge-midpoints="true" inkscape:snap-bbox-midpoints="true" inkscape:snap-global="false">
    <inkscape:grid type="xygrid" id="grid4201" empspacing="5" visible="true" enabled="true" snapvisiblegridlinesonly="true"/>
  </sodipodi:namedview>
  
  <g inkscape:label="Layer 1" inkscape:groupmode="layer" id="layer1" transform="translate(0,-1036.3622)">
    <g transform="translate(-110.31406,-68.175491)" id="g4774">
      <g style="font-size:11.11111259px;font-style:normal;font-weight:normal;line-height:125%;letter-spacing:0px;word-spacing:0px;fill:#3bc689;fill-opacity:1;stroke:none;font-family:sans-serif" id="text10164-8-51"/>
      <g id="g4273" transform="translate(110.31406,61.625073)">
        <g id="g5023" transform="translate(4.029e-4,6.5504267)">
          <path style="font-size:medium;font-style:normal;font-variant:normal;font-weight:normal;font-stretch:normal;text-indent:0;text-align:start;text-decoration:none;line-height:normal;letter-spacing:normal;word-spacing:normal;text-transform:none;direction:ltr;block-progression:tb;writing-mode:lr-tb;text-anchor:start;baseline-shift:baseline;color:#000000;fill:#000000;fill-opacity:1;stroke:none;stroke-width:1px;marker:none;visibility:visible;display:inline;overflow:visible;enable-background:accumulate;font-family:Sans;-inkscape-font-specification:Sans" d="M 1.09375 0.875 L 0.59375 1.75 C 0.87726302 1.9137 1.3641944 2.1386 1.75 2.4375 C 2.1358056 2.7364 2.34375 3.0625 2.34375 3.3125 L 2.34375 11.3125 L 3.34375 11.3125 L 3.34375 3.3125 C 3.6322918 2.9520599 3.8887538 2.5420942 4.15625 2.25 C 4.3359275 2.0538 4.5124307 1.9216 4.625 1.875 C 4.7375693 1.828 4.7804736 1.83425 4.90625 1.90625 L 5.03125 1.96875 C 5.3121392 2.13095 5.6665243 2.30225 5.9375 2.53125 C 6.2084757 2.76035 6.34375 2.9935 6.34375 3.3125 L 6.34375 11.3125 L 7.34375 11.3125 L 7.34375 3.3125 C 7.34375 3.301348 7.3439545 3.292312 7.34375 3.28125 C 7.6262846 2.9256605 7.8934318 2.536986 8.15625 2.25 C 8.3359275 2.0538 8.5124307 1.9216 8.625 1.875 C 8.7375693 1.828 8.7804738 1.83425 8.90625 1.90625 L 9.03125 1.96875 C 9.3121391 2.13095 9.6665244 2.30225 9.9375 2.53125 C 10.208476 2.76035 10.34375 2.9935 10.34375 3.3125 L 10.34375 11.1875 L 10.34375 11.3125 C 10.37352 12.115261 10.688091 12.766167 11.15625 13.15625 C 11.648792 13.56675 12.260417 13.6875 12.84375 13.6875 L 14 13.6875 L 13.375 14.3125 L 14.09375 15.03125 L 15.5 13.59375 L 15.84375 13.25 L 15.5 12.90625 L 14.09375 11.46875 L 13.375 12.1875 L 13.875 12.6875 L 12.84375 12.6875 C 12.427083 12.6875 12.069958 12.5895 11.8125 12.375 C 11.573339 12.175744 11.370872 11.866622 11.34375 11.3125 C 11.34165 11.27011 11.34375 11.2329 11.34375 11.1875 L 11.34375 3.3125 C 11.34375 2.6315 10.959493 2.11685 10.5625 1.78125 C 9.7039896 1.0788121 9.2178352 0.70941933 8.25 0.96875 C 7.9133021 1.10805 7.6668585 1.34325 7.4375 1.59375 C 7.2540132 1.79407 7.0984735 2.0117996 6.9375 2.21875 C 6.8195961 2.0626526 6.6982288 1.8959889 6.5625 1.78125 C 5.7039894 1.078812 5.1829626 0.71876343 4.25 0.96875 C 3.9133021 1.10805 3.6668585 1.34325 3.4375 1.59375 C 3.2540132 1.79407 3.0984735 2.0117996 2.9375 2.21875 C 2.7638396 2.0016829 2.5492517 1.8154611 2.34375 1.65625 C 1.8545556 1.27735 1.310237 1 1.09375 0.875 z " transform="translate(-4.029e-4,1036.3622)" id="path4967"/>
        </g>
      </g>
    </g>
  </g>

	
	
	<metadata>
		<rdf:RDF xmlns:rdf="http://www.w3.org/1999/02/22-rdf-syntax-ns#" xmlns:rdfs="http://www.w3.org/2000/01/rdf-schema#" xmlns:dc="http://purl.org/dc/elements/1.1/">
			<rdf:Description about="https://iconscout.com/legal#licenses" dc:title="Astrology, Zodiac, Horoscope, Scorpio, Sign, Scorpiones, Symbol" dc:description="Astrology, Zodiac, Horoscope, Scorpio, Sign, Scorpiones, Symbol" dc:publisher="Iconscout" dc:date="2016-12-14" dc:format="image/svg+xml" dc:language="en">
				<dc:creator>
					<rdf:Bag>
						<rdf:li>Mohit Gandhi</rdf:li>
					</rdf:Bag>
				</dc:creator>
			</rdf:Description>
		</rdf:RDF>
    </metadata></svg>
