<?xml version="1.0" encoding="UTF-8" standalone="no"?>
<svg xmlns:dc="http://purl.org/dc/elements/1.1/" xmlns:cc="http://creativecommons.org/ns#" xmlns:rdf="http://www.w3.org/1999/02/22-rdf-syntax-ns#" xmlns:svg="http://www.w3.org/2000/svg" xmlns="http://www.w3.org/2000/svg" xmlns:sodipodi="http://sodipodi.sourceforge.net/DTD/sodipodi-0.dtd" xmlns:inkscape="http://www.inkscape.org/namespaces/inkscape" width="64px" height="64px" id="svg4193" version="1.1" inkscape:version="0.48.4 r9939" sodipodi:docname="2.svg">
  <defs id="defs4195"/>
  <sodipodi:namedview id="base" pagecolor="#ffffff" bordercolor="#666666" borderopacity="1.0" inkscape:pageopacity="0.0" inkscape:pageshadow="2" inkscape:zoom="8" inkscape:cx="-2.8612298" inkscape:cy="13.220233" inkscape:document-units="px" inkscape:current-layer="g5023" showgrid="true" inkscape:window-width="1366" inkscape:window-height="705" inkscape:window-x="-8" inkscape:window-y="-8" inkscape:window-maximized="1" inkscape:snap-bbox="true" inkscape:bbox-paths="true" inkscape:bbox-nodes="true" inkscape:snap-bbox-edge-midpoints="true" inkscape:snap-bbox-midpoints="true">
    <inkscape:grid type="xygrid" id="grid4201" empspacing="5" visible="true" enabled="true" snapvisiblegridlinesonly="true"/>
  </sodipodi:namedview>
  
  <g inkscape:label="Layer 1" inkscape:groupmode="layer" id="layer1" transform="translate(0,-1036.3622)">
    <g transform="translate(-110.31406,-68.175491)" id="g4774">
      <g style="font-size:11.11111259px;font-style:normal;font-weight:normal;line-height:125%;letter-spacing:0px;word-spacing:0px;fill:#3bc689;fill-opacity:1;stroke:none;font-family:sans-serif" id="text10164-8-51"/>
      <g id="g4273" transform="translate(110.31406,61.625073)">
        <g id="g5023" transform="translate(4.029e-4,6.5504267)">
          <path style="font-size:medium;font-style:normal;font-variant:normal;font-weight:normal;font-stretch:normal;text-indent:0;text-align:start;text-decoration:none;line-height:normal;letter-spacing:normal;word-spacing:normal;text-transform:none;direction:ltr;block-progression:tb;writing-mode:lr-tb;text-anchor:start;baseline-shift:baseline;color:#000000;fill:#000000;fill-opacity:1;stroke:none;stroke-width:1.34288144;marker:none;visibility:visible;display:inline;overflow:visible;enable-background:accumulate;font-family:Sans;-inkscape-font-specification:Sans" d="m 9.1245277,1039.2378 c -2.4455549,0 -4.6621966,0.4712 -6.3121127,1.2499 -1.0961381,0.5173 -1.9385874,1.1904 -2.40610242,1.9999 -0.0768566,0.1331 -0.16507301,0.2662 -0.21873657,0.4061 -0.009033,0.021 -0.0228293,0.041 -0.0312481,0.062 -0.03891,0.1097 -0.06997288,0.2301 -0.09374424,0.3438 -0.0022108,0.01 0.0020808,0.021 0,0.031 -0.03087184,0.1575 -0.06249616677,0.3041 -0.06249616677,0.4688 a 0.50337306,0.49668783 0 0 0 0,0.062 c 8.8418565e-4,0.033 0.02900109677,0.061 0.03124807677,0.094 a 0.50337306,0.49668783 0 0 0 0,0.031 c 0.09907438,1.1996 1.10222031,2.156 2.34360621,2.156 1.3070223,0 2.3748543,-1.0538 2.3748543,-2.3435 0,-1.0737 -0.7499196,-1.9718 -1.7498926,-2.2499 0.09175,-0.048 0.1520745,-0.1101 0.2499846,-0.1563 1.4701215,-0.6938 3.5591768,-1.1561 5.8746396,-1.1561 2.1218253,0 4.1465333,0.398 5.6559033,1.0624 a 0.52297154,0.51602604 0 1 0 0.437473,-0.9374 c -1.682803,-0.7409 -3.849813,-1.1249 -6.0933763,-1.1249 z m 4.4997243,2.2185 c -1.307022,0 -2.374854,1.0541 -2.374854,2.3437 0,1.0957 0.780951,1.9982 1.812388,2.2498 -0.110362,0.059 -0.192926,0.1311 -0.31248,0.1875 -1.470122,0.6939 -3.5591776,1.125 -5.8746403,1.125 -2.1218129,0 -4.1465099,-0.3668 -5.6559029,-1.0313 a 0.50865476,0.50189939 0 0 0 -0.43747322,0.9063 c 1.68278012,0.7407 3.84980162,1.1249 6.09337612,1.1249 2.4455549,0 4.6621963,-0.4714 6.3121133,-1.2499 1.096138,-0.5173 1.938587,-1.1972 2.406102,-1.9999 0.06709,-0.098 0.135869,-0.2047 0.187489,-0.3125 0.01347,-0.032 0.01904,-0.062 0.03125,-0.094 0.119698,-0.2793 0.187488,-0.5837 0.187488,-0.9061 0,-0.044 -0.02886,-0.082 -0.03125,-0.125 a 0.50337306,0.49668783 0 0 0 0,-0.062 c -0.09907,-1.2017 -1.10222,-2.1562 -2.343606,-2.1562 z m -11.5305429,1 c 0.089949,-0.018 0.1858596,0 0.2812327,0 0.7629855,0 1.3749157,0.5908 1.3749157,1.3437 0,0.7528 -0.6119302,1.3436 -1.3749157,1.3436 -0.7315818,0 -1.3268211,-0.5418 -1.3749156,-1.2499 a 0.50337306,0.49668783 0 0 0 0,-0.094 c 0,-0.095 0.011618,-0.1855 0.031248,-0.2813 0.00217,-0.01 -0.00241,-0.021 0,-0.031 0.011749,-0.052 0.013845,-0.1045 0.031248,-0.1563 0.00815,-0.022 0.021989,-0.041 0.031248,-0.062 0.029761,-0.078 0.082665,-0.1413 0.1249924,-0.2187 0.1987535,-0.2903 0.5151499,-0.5209 0.8749463,-0.5937 z m 11.2493099,0 c 0.08995,-0.018 0.18586,0 0.281233,0 0.721115,0 1.312045,0.5232 1.374916,1.2187 a 0.50337306,0.49668783 0 0 0 0,0.094 c 2.32e-4,0.01 0,0.021 0,0.031 0,0.094 -0.01283,0.1931 -0.03125,0.2812 -0.0022,0.011 0.0024,0.021 0,0.031 -0.140842,0.6008 -0.687275,1.0311 -1.343668,1.0311 -0.762985,0 -1.374916,-0.5908 -1.374916,-1.3436 0,-0.6588 0.46404,-1.2164 1.093683,-1.3437 z" id="path4723" inkscape:connector-curvature="0"/>
        </g>
      </g>
    </g>
  </g>

	
	
	<metadata>
		<rdf:RDF xmlns:rdf="http://www.w3.org/1999/02/22-rdf-syntax-ns#" xmlns:rdfs="http://www.w3.org/2000/01/rdf-schema#" xmlns:dc="http://purl.org/dc/elements/1.1/">
			<rdf:Description about="https://iconscout.com/legal#licenses" dc:title="Cancer, Zodiac, Horoscope, Astrology, Sign, Symbol" dc:description="Cancer, Zodiac, Horoscope, Astrology, Sign, Symbol" dc:publisher="Iconscout" dc:date="2016-12-14" dc:format="image/svg+xml" dc:language="en">
				<dc:creator>
					<rdf:Bag>
						<rdf:li>Mohit Gandhi</rdf:li>
					</rdf:Bag>
				</dc:creator>
			</rdf:Description>
		</rdf:RDF>
    </metadata></svg>
