<?xml version="1.0" encoding="UTF-8" standalone="no"?>
<svg xmlns:dc="http://purl.org/dc/elements/1.1/" xmlns:cc="http://creativecommons.org/ns#" xmlns:rdf="http://www.w3.org/1999/02/22-rdf-syntax-ns#" xmlns:svg="http://www.w3.org/2000/svg" xmlns="http://www.w3.org/2000/svg" xmlns:sodipodi="http://sodipodi.sourceforge.net/DTD/sodipodi-0.dtd" xmlns:inkscape="http://www.inkscape.org/namespaces/inkscape" width="64px" height="64px" id="svg4193" version="1.1" inkscape:version="0.48.4 r9939" sodipodi:docname="10.svg">
  <defs id="defs4195"/>
  <sodipodi:namedview id="base" pagecolor="#ffffff" bordercolor="#666666" borderopacity="1.0" inkscape:pageopacity="0.0" inkscape:pageshadow="2" inkscape:zoom="8" inkscape:cx="17.967389" inkscape:cy="1.5648871" inkscape:document-units="px" inkscape:current-layer="g5023" showgrid="true" inkscape:window-width="1366" inkscape:window-height="705" inkscape:window-x="-8" inkscape:window-y="-8" inkscape:window-maximized="1" inkscape:snap-bbox="true" inkscape:bbox-paths="true" inkscape:bbox-nodes="true" inkscape:snap-bbox-edge-midpoints="true" inkscape:snap-bbox-midpoints="true" inkscape:snap-global="false">
    <inkscape:grid type="xygrid" id="grid4201" empspacing="5" visible="true" enabled="true" snapvisiblegridlinesonly="true"/>
  </sodipodi:namedview>
  
  <g inkscape:label="Layer 1" inkscape:groupmode="layer" id="layer1" transform="translate(0,-1036.3622)">
    <g transform="translate(-110.31406,-68.175491)" id="g4774">
      <g style="font-size:11.11111259px;font-style:normal;font-weight:normal;line-height:125%;letter-spacing:0px;word-spacing:0px;fill:#3bc689;fill-opacity:1;stroke:none;font-family:sans-serif" id="text10164-8-51"/>
      <g id="g4273" transform="translate(110.31406,61.625073)">
        <g id="g5023" transform="translate(4.029e-4,6.5504267)">
          <path style="font-size:medium;font-style:normal;font-variant:normal;font-weight:normal;font-stretch:normal;text-indent:0;text-align:start;text-decoration:none;line-height:normal;letter-spacing:normal;word-spacing:normal;text-transform:none;direction:ltr;block-progression:tb;writing-mode:lr-tb;text-anchor:start;baseline-shift:baseline;color:#000000;fill:#000000;fill-opacity:1;stroke:none;stroke-width:0.99999994px;marker:none;visibility:visible;display:inline;overflow:visible;enable-background:accumulate;font-family:Sans;-inkscape-font-specification:Sans" d="m 0.25,1036.375 0,1 c 0.66124502,0 1.0977503,0.051 1.46875,0.25 0.3709997,0.1987 0.7374084,0.5745 1.1875,1.3438 1.0878477,1.8591 1.34375,5.486 1.34375,7.9062 l 0,0.5 0.5,0 0.5,0 0,-0.5 c 0,-2.4202 0.2559023,-6.0471 1.34375,-7.9062 0.3807584,-0.6508 0.6889586,-1.0308 0.96875,-1.25 0.2797914,-0.2193 0.5320253,-0.3048 0.96875,-0.3438 0.1164855,-0.011 0.5,0 0.5,0 l 0.03125,0 c 0.1733779,0 0.240815,0.025 0.375,0.2812 0.134185,0.2563 0.2431298,0.7009 0.3125,1.2813 0.1387404,1.1607 0.1246179,2.7969 0.1875,4.4375 0.057355,1.4964 0.215232,2.9584 0.625,4.2188 -0.189607,0.3123 -0.426981,0.5914 -0.59375,0.9062 -0.3855667,0.7278 -0.7627145,1.4309 -1.15625,1.9062 -0.3935355,0.4754 -0.7574158,0.7188 -1.3125,0.7188 l 0,1 c 0.8884078,0 1.5910658,-0.4865 2.09375,-1.0938 0.502684,-0.6072 0.870879,-1.3468 1.25,-2.0624 0.06907,-0.1304 0.148728,-0.2167 0.21875,-0.3438 0.213442,0.3728 0.394044,0.7947 0.71875,1.0625 0.517814,0.4271 1.183221,0.6563 1.96875,0.6563 1.374075,0 2.5,-1.1261 2.5,-2.5 0,-1.3742 -1.125985,-2.5 -2.5,-2.5 -0.994663,0 -1.787663,0.438 -2.375,1.0312 -0.197974,-0.9511 -0.394203,-1.9017 -0.4375,-3.0312 -0.0616,-1.6072 -0.03509,-3.225 -0.1875,-4.5 -0.0762,-0.6376 -0.199629,-1.2021 -0.4375,-1.6563 -0.3201756,-0.5208 -0.7893368,-0.8123 -1.21875,-0.8123 0,0 -0.02956,10e-5 -0.03125,0 -0.03211,0 -0.3252106,-0.024 -0.59375,0 -0.5560337,0.05 -1.0910709,0.1864 -1.53125,0.5312 -0.4401791,0.3449 -0.7780165,0.8627 -1.1875,1.5626 -0.5262101,0.8993 -0.779246,2.0998 -1,3.2812 -0.2207654,-1.1807 -0.4428236,-2.3824 -0.96875,-3.2812 -0.4990164,-0.8529 -1.0030606,-1.4024 -1.59375,-1.7188 -0.5906894,-0.3164 -1.22316233,-0.375 -1.9375,-0.375 z m 13.5,9.9688 c 0.833657,0 1.5,0.6663 1.5,1.5 0,0.8334 -0.666403,1.5 -1.5,1.5 -0.588565,0 -1.000247,-0.1542 -1.34375,-0.4376 -0.31784,-0.2621 -0.573601,-0.6602 -0.78125,-1.1562 0.14684,-0.2111 0.275761,-0.4893 0.4375,-0.6562 0.458619,-0.4734 0.950639,-0.75 1.6875,-0.75 z" id="path4813" inkscape:connector-curvature="0" sodipodi:nodetypes="ccccscccsccccsccscscccccccssscscccccccccsccssscccs"/>
        </g>
      </g>
    </g>
  </g>

	
	
	<metadata>
		<rdf:RDF xmlns:rdf="http://www.w3.org/1999/02/22-rdf-syntax-ns#" xmlns:rdfs="http://www.w3.org/2000/01/rdf-schema#" xmlns:dc="http://purl.org/dc/elements/1.1/">
			<rdf:Description about="https://iconscout.com/legal#licenses" dc:title="Capricorn, Horoscope, Zodiac, Astrology, Sign, Symbol" dc:description="Capricorn, Horoscope, Zodiac, Astrology, Sign, Symbol" dc:publisher="Iconscout" dc:date="2016-12-14" dc:format="image/svg+xml" dc:language="en">
				<dc:creator>
					<rdf:Bag>
						<rdf:li>Mohit Gandhi</rdf:li>
					</rdf:Bag>
				</dc:creator>
			</rdf:Description>
		</rdf:RDF>
    </metadata></svg>
