<?xml version="1.0" encoding="UTF-8" standalone="no"?>
<svg xmlns:dc="http://purl.org/dc/elements/1.1/" xmlns:cc="http://creativecommons.org/ns#" xmlns:rdf="http://www.w3.org/1999/02/22-rdf-syntax-ns#" xmlns:svg="http://www.w3.org/2000/svg" xmlns="http://www.w3.org/2000/svg" xmlns:sodipodi="http://sodipodi.sourceforge.net/DTD/sodipodi-0.dtd" xmlns:inkscape="http://www.inkscape.org/namespaces/inkscape" width="64px" height="64px" id="svg4193" version="1.1" inkscape:version="0.48.4 r9939" sodipodi:docname="20.svg">
  <defs id="defs4195"/>
  <sodipodi:namedview id="base" pagecolor="#ffffff" bordercolor="#666666" borderopacity="1.0" inkscape:pageopacity="0.0" inkscape:pageshadow="2" inkscape:zoom="16" inkscape:cx="-1.9834185" inkscape:cy="6.8458396" inkscape:document-units="px" inkscape:current-layer="g5177" showgrid="true" inkscape:window-width="1366" inkscape:window-height="705" inkscape:window-x="-8" inkscape:window-y="-8" inkscape:window-maximized="1" inkscape:snap-bbox="true" inkscape:bbox-paths="true" inkscape:bbox-nodes="true" inkscape:snap-bbox-edge-midpoints="true" inkscape:snap-bbox-midpoints="true" inkscape:snap-global="true">
    <inkscape:grid type="xygrid" id="grid4201" empspacing="5" visible="true" enabled="true" snapvisiblegridlinesonly="true"/>
  </sodipodi:namedview>
  
  <g inkscape:label="Layer 1" inkscape:groupmode="layer" id="layer1" transform="translate(0,-1036.3622)">
    <g transform="translate(-110.31406,-68.175491)" id="g4774">
      <g style="font-size:11.11111259px;font-style:normal;font-weight:normal;line-height:125%;letter-spacing:0px;word-spacing:0px;fill:#3bc689;fill-opacity:1;stroke:none;font-family:sans-serif" id="text10164-8-51"/>
      <g id="g4273" transform="translate(110.31406,61.625073)">
        <g id="g5023" transform="translate(4.029e-4,6.5504267)">
          <g transform="translate(29.999597,-31.999991)" id="g5177">
            <path style="font-size:medium;font-style:normal;font-variant:normal;font-weight:normal;font-stretch:normal;text-indent:0;text-align:start;text-decoration:none;line-height:normal;letter-spacing:normal;word-spacing:normal;text-transform:none;direction:ltr;block-progression:tb;writing-mode:lr-tb;text-anchor:start;baseline-shift:baseline;color:#000000;fill:#000000;fill-opacity:1;stroke:none;stroke-width:1px;marker:none;visibility:visible;display:inline;overflow:visible;enable-background:accumulate;font-family:Sans;-inkscape-font-specification:Sans" d="m -17.99976,1068.3622 0,11 -2.375,0 c 0.340781,-0.7519 0.700978,-1.5037 1.03125,-2.25 0.60534,-1.4851 0.421489,-3.2911 -0.53125,-4.625 -0.0084,-0.012 -0.0227,-0.019 -0.03125,-0.031 -0.928117,-1.3265 -2.509424,-2.0898 -4.09375,-2.0937 -0.532975,0 -1.049227,0.074 -1.5625,0.25 -2.002497,0.6186 -3.468413,2.5446 -3.4375,4.6562 -0.0037,0.2642 0.235817,0.5071 0.5,0.5071 0.264183,0 0.503736,-0.2429 0.5,-0.5071 -0.02389,-1.6317 1.190941,-3.2371 2.75,-3.7187 1.60536,-0.5503 3.571545,0.1 4.53125,1.5 0.743966,1.0216 0.898746,2.495 0.4375,3.6562 -0.0037,0.01 0.0038,0.022 0,0.031 -0.38198,0.8627 -0.765645,1.7517 -1.15625,2.625 l -7.5625,0 0,1 c 3.678078,0.01 7.335305,0 11,0 l 0,4 1,0 0,-4 2,0 0,-1 -2,0 0,-11 z" id="path5216" inkscape:connector-curvature="0" sodipodi:nodetypes="cccccccccsccccccccccccccccc"/>
          </g>
        </g>
      </g>
    </g>
  </g>

	
	
	<metadata>
		<rdf:RDF xmlns:rdf="http://www.w3.org/1999/02/22-rdf-syntax-ns#" xmlns:rdfs="http://www.w3.org/2000/01/rdf-schema#" xmlns:dc="http://purl.org/dc/elements/1.1/">
			<rdf:Description about="https://iconscout.com/legal#licenses" dc:title="Jupiter, Astronomical, Astrology, Horoscope, Zodiac, Sign, Symbol" dc:description="Jupiter, Astronomical, Astrology, Horoscope, Zodiac, Sign, Symbol" dc:publisher="Iconscout" dc:date="2016-12-14" dc:format="image/svg+xml" dc:language="en">
				<dc:creator>
					<rdf:Bag>
						<rdf:li>Mohit Gandhi</rdf:li>
					</rdf:Bag>
				</dc:creator>
			</rdf:Description>
		</rdf:RDF>
    </metadata></svg>
