<?xml version="1.0" encoding="UTF-8" standalone="no"?>
<svg xmlns:dc="http://purl.org/dc/elements/1.1/" xmlns:cc="http://creativecommons.org/ns#" xmlns:rdf="http://www.w3.org/1999/02/22-rdf-syntax-ns#" xmlns:svg="http://www.w3.org/2000/svg" xmlns="http://www.w3.org/2000/svg" xmlns:sodipodi="http://sodipodi.sourceforge.net/DTD/sodipodi-0.dtd" xmlns:inkscape="http://www.inkscape.org/namespaces/inkscape" width="64px" height="64px" id="svg4193" version="1.1" inkscape:version="0.48.4 r9939" sodipodi:docname="8.svg">
  <defs id="defs4195"/>
  <sodipodi:namedview id="base" pagecolor="#ffffff" bordercolor="#666666" borderopacity="1.0" inkscape:pageopacity="0.0" inkscape:pageshadow="2" inkscape:zoom="11.313708" inkscape:cx="12.386221" inkscape:cy="20.707199" inkscape:document-units="px" inkscape:current-layer="g5023" showgrid="true" inkscape:window-width="1366" inkscape:window-height="705" inkscape:window-x="-8" inkscape:window-y="-8" inkscape:window-maximized="1" inkscape:snap-bbox="true" inkscape:bbox-paths="true" inkscape:bbox-nodes="true" inkscape:snap-bbox-edge-midpoints="true" inkscape:snap-bbox-midpoints="true" inkscape:snap-global="false">
    <inkscape:grid type="xygrid" id="grid4201" empspacing="5" visible="true" enabled="true" snapvisiblegridlinesonly="true"/>
  </sodipodi:namedview>
  
  <g inkscape:label="Layer 1" inkscape:groupmode="layer" id="layer1" transform="translate(0,-1036.3622)">
    <g transform="translate(-110.31406,-68.175491)" id="g4774">
      <g style="font-size:11.11111259px;font-style:normal;font-weight:normal;line-height:125%;letter-spacing:0px;word-spacing:0px;fill:#3bc689;fill-opacity:1;stroke:none;font-family:sans-serif" id="text10164-8-51"/>
      <g id="g4273" transform="translate(110.31406,61.625073)">
        <g id="g5023" transform="translate(4.029e-4,6.5504267)">
          <g id="g5832">
            <path sodipodi:nodetypes="ssscssccccccccsccsccccccsssssss" inkscape:connector-curvature="0" id="path5807" transform="translate(-4.029e-4,1036.3622)" d="M 8.8125,0 C 8.5733976,-0.00317344 8.330032,0.01935 8.09375,0.0625 7.1486241,0.2351 6.2745967,0.7756 5.6875,1.625 4.8068548,2.8991 4.8103254,4.5221656 5.59375,5.75 4.4259416,5.9512792 3.5000001,6.972851 3.5,8.1875 c 10e-8,1.3525 1.1484257,2.5 2.5,2.5 1.3515743,0 2.4999999,-1.1475 2.5,-2.5 C 8.4280626,7.1183423 7.8782449,6.4586035 7.1875,6 5.9332312,5.1331 5.6330882,3.4418 6.5,2.1875 7.3669118,0.9333 9.0582317,0.6331 10.3125,1.5 11.318289,2.1952 11.758715,3.4642 11.375,4.625 L 11.089844,5.203125 8.125,11.71875 8.09375,11.78125 c -0.5593859,1.0243 -0.4394137,2.2896 0.3125,3.1875 0.7658796,0.9146 2.004817,1.25235 3.125,0.84375 1.120135,-0.4086 1.874985,-1.46295 1.875,-2.65625 0,-0.2659 -0.23411,-0.5 -0.5,-0.5 -0.26589,0 -0.5,0.2341 -0.5,0.5 -9e-6,0.7772 -0.490861,1.4844 -1.21875,1.75 -0.727834,0.2654 -1.5329638,0.0329 -2.03125,-0.5625 C 8.6579823,13.74875 8.7529386,12.7353 9,12.21875 9.9668041,10.038791 10.99893,7.8148407 12,5.625 c 0,0 0.211305,-0.467 0.3125,-0.6875 0.52161,-1.578 -0.07026,-3.305 -1.4375,-4.25 C 10.237931,0.247175 9.5298072,0.00952031 8.8125,0 z M 6,6.6875 c 0.743714,0 1.5,0.7528 1.5,1.5 0,0.7472 -0.756286,1.5 -1.5,1.5 -0.743714,0 -1.5,-0.7528 -1.5,-1.5 0,-0.7472 0.756286,-1.5 1.5,-1.5 z" style="font-size:medium;font-style:normal;font-variant:normal;font-weight:normal;font-stretch:normal;text-indent:0;text-align:start;text-decoration:none;line-height:normal;letter-spacing:normal;word-spacing:normal;text-transform:none;direction:ltr;block-progression:tb;writing-mode:lr-tb;text-anchor:start;baseline-shift:baseline;color:#000000;fill:#000000;fill-opacity:1;stroke:none;stroke-width:1.07692313;marker:none;visibility:visible;display:inline;overflow:visible;enable-background:accumulate;font-family:Sans;-inkscape-font-specification:Sans"/>
          </g>
        </g>
      </g>
    </g>
  </g>

	
	
	<metadata>
		<rdf:RDF xmlns:rdf="http://www.w3.org/1999/02/22-rdf-syntax-ns#" xmlns:rdfs="http://www.w3.org/2000/01/rdf-schema#" xmlns:dc="http://purl.org/dc/elements/1.1/">
			<rdf:Description about="https://iconscout.com/legal#licenses" dc:title="Leo, Zodiac, Horoscope, Astrology, Sign, Symbol" dc:description="Leo, Zodiac, Horoscope, Astrology, Sign, Symbol" dc:publisher="Iconscout" dc:date="2016-12-14" dc:format="image/svg+xml" dc:language="en">
				<dc:creator>
					<rdf:Bag>
						<rdf:li>Mohit Gandhi</rdf:li>
					</rdf:Bag>
				</dc:creator>
			</rdf:Description>
		</rdf:RDF>
    </metadata></svg>
