<?xml version="1.0" encoding="UTF-8" standalone="no"?>
<svg xmlns:dc="http://purl.org/dc/elements/1.1/" xmlns:cc="http://creativecommons.org/ns#" xmlns:rdf="http://www.w3.org/1999/02/22-rdf-syntax-ns#" xmlns:svg="http://www.w3.org/2000/svg" xmlns="http://www.w3.org/2000/svg" xmlns:sodipodi="http://sodipodi.sourceforge.net/DTD/sodipodi-0.dtd" xmlns:inkscape="http://www.inkscape.org/namespaces/inkscape" width="64px" height="64px" id="svg4193" version="1.1" inkscape:version="0.48.4 r9939" sodipodi:docname="9.svg">
  <defs id="defs4195"/>
  <sodipodi:namedview id="base" pagecolor="#ffffff" bordercolor="#666666" borderopacity="1.0" inkscape:pageopacity="0.0" inkscape:pageshadow="2" inkscape:zoom="11.313708" inkscape:cx="1.1278494" inkscape:cy="5.6731407" inkscape:document-units="px" inkscape:current-layer="g5023" showgrid="true" inkscape:window-width="1366" inkscape:window-height="705" inkscape:window-x="-8" inkscape:window-y="-8" inkscape:window-maximized="1" inkscape:snap-bbox="true" inkscape:bbox-paths="true" inkscape:bbox-nodes="true" inkscape:snap-bbox-edge-midpoints="true" inkscape:snap-bbox-midpoints="true" inkscape:snap-global="true">
    <inkscape:grid type="xygrid" id="grid4201" empspacing="5" visible="true" enabled="true" snapvisiblegridlinesonly="true"/>
  </sodipodi:namedview>
  
  <g inkscape:label="Layer 1" inkscape:groupmode="layer" id="layer1" transform="translate(0,-1036.3622)">
    <g transform="translate(-110.31406,-68.175491)" id="g4774">
      <g style="font-size:11.11111259px;font-style:normal;font-weight:normal;line-height:125%;letter-spacing:0px;word-spacing:0px;fill:#3bc689;fill-opacity:1;stroke:none;font-family:sans-serif" id="text10164-8-51"/>
      <g id="g4273" transform="translate(110.31406,61.625073)">
        <g id="g5023" transform="translate(4.029e-4,6.5504267)">
          <path style="font-size:medium;font-style:normal;font-variant:normal;font-weight:normal;font-stretch:normal;text-indent:0;text-align:start;text-decoration:none;line-height:normal;letter-spacing:normal;word-spacing:normal;text-transform:none;direction:ltr;block-progression:tb;writing-mode:lr-tb;text-anchor:start;baseline-shift:baseline;color:#000000;fill:#000000;fill-opacity:1;stroke:none;stroke-width:1px;marker:none;visibility:visible;display:inline;overflow:visible;enable-background:accumulate;font-family:Sans;-inkscape-font-specification:Sans" d="M 7.5 3.5 C 6.7677527 3.5917391 6.0708367 3.917825 5.46875 4.4375 C 4.1054133 5.6142 3.8336207 7.4715 4.625 9 L 0.5 9 C 0.23607861 9 0 9.2361 0 9.5 C 0 9.764 0.23607861 10.0037 0.5 10 L 5.4375 10 C 5.7240411 10 5.8982739 9.80265 5.9375 9.65625 C 5.998159 9.48925 5.96081 9.28995 5.84375 9.15625 C 4.7990942 7.97355 4.8962896 6.2211 6.09375 5.1875 C 7.2912128 4.1539 9.111573 4.2547 10.15625 5.4375 C 11.105558 6.5123 11.111978 8.08695 10.15625 9.15625 C 10.13363 9.17525 10.11264 9.19575 10.09375 9.21875 C 9.8856225 9.52385 10.162299 10.018 10.53125 10 L 15.5 10 C 15.763921 10 16 9.764 16 9.5 C 16 9.2361 15.763921 8.9963 15.5 9 L 11.40625 9 C 12.106779 7.6351 11.963811 5.97855 10.90625 4.78125 C 10.204927 3.98715 9.2375092 3.5661 8.25 3.5 C 8.0031227 3.4835 7.7440824 3.4694203 7.5 3.5 z M 0.40625 12 C 0.14457367 12.041 0 12.21855 0 12.59375 C 0 12.85585 0.30082367 13.0409 0.5625 13 L 15.5 13 C 15.764032 13 16 12.7641 16 12.5 C 16 12.236 15.764032 11.9963 15.5 12 L 0.5625 12 C 0.5108689 11.99 0.45788109 11.99 0.40625 12 z " transform="translate(-4.029e-4,1036.3622)" id="path4799"/>
        </g>
      </g>
    </g>
  </g>

	
	
	<metadata>
		<rdf:RDF xmlns:rdf="http://www.w3.org/1999/02/22-rdf-syntax-ns#" xmlns:rdfs="http://www.w3.org/2000/01/rdf-schema#" xmlns:dc="http://purl.org/dc/elements/1.1/">
			<rdf:Description about="https://iconscout.com/legal#licenses" dc:title="Libra, Zodiac, Horoscope, Astrology, Sign, Symbol" dc:description="Libra, Zodiac, Horoscope, Astrology, Sign, Symbol" dc:publisher="Iconscout" dc:date="2016-12-14" dc:format="image/svg+xml" dc:language="en">
				<dc:creator>
					<rdf:Bag>
						<rdf:li>Mohit Gandhi</rdf:li>
					</rdf:Bag>
				</dc:creator>
			</rdf:Description>
		</rdf:RDF>
    </metadata></svg>
