<?xml version="1.0" encoding="UTF-8" standalone="no"?>
<svg xmlns:dc="http://purl.org/dc/elements/1.1/" xmlns:cc="http://creativecommons.org/ns#" xmlns:rdf="http://www.w3.org/1999/02/22-rdf-syntax-ns#" xmlns:svg="http://www.w3.org/2000/svg" xmlns="http://www.w3.org/2000/svg" xmlns:sodipodi="http://sodipodi.sourceforge.net/DTD/sodipodi-0.dtd" xmlns:inkscape="http://www.inkscape.org/namespaces/inkscape" width="64px" height="64px" id="svg4193" version="1.1" inkscape:version="0.48.4 r9939" sodipodi:docname="19.svg">
  <defs id="defs4195"/>
  <sodipodi:namedview id="base" pagecolor="#ffffff" bordercolor="#666666" borderopacity="1.0" inkscape:pageopacity="0.0" inkscape:pageshadow="2" inkscape:zoom="16" inkscape:cx="8.158959" inkscape:cy="5.7435806" inkscape:document-units="px" inkscape:current-layer="g5177" showgrid="true" inkscape:window-width="1366" inkscape:window-height="705" inkscape:window-x="-8" inkscape:window-y="-8" inkscape:window-maximized="1" inkscape:snap-bbox="true" inkscape:bbox-paths="true" inkscape:bbox-nodes="true" inkscape:snap-bbox-edge-midpoints="true" inkscape:snap-bbox-midpoints="true" inkscape:snap-global="true">
    <inkscape:grid type="xygrid" id="grid4201" empspacing="5" visible="true" enabled="true" snapvisiblegridlinesonly="true"/>
  </sodipodi:namedview>
  
  <g inkscape:label="Layer 1" inkscape:groupmode="layer" id="layer1" transform="translate(0,-1036.3622)">
    <g transform="translate(-110.31406,-68.175491)" id="g4774">
      <g style="font-size:11.11111259px;font-style:normal;font-weight:normal;line-height:125%;letter-spacing:0px;word-spacing:0px;fill:#3bc689;fill-opacity:1;stroke:none;font-family:sans-serif" id="text10164-8-51"/>
      <g id="g4273" transform="translate(110.31406,61.625073)">
        <g id="g5023" transform="translate(4.029e-4,6.5504267)">
          <g transform="translate(29.999597,-31.999991)" id="g5177">
            <path style="font-size:medium;font-style:normal;font-variant:normal;font-weight:normal;font-stretch:normal;text-indent:0;text-align:start;text-decoration:none;line-height:normal;letter-spacing:normal;word-spacing:normal;text-transform:none;direction:ltr;block-progression:tb;writing-mode:lr-tb;text-anchor:start;baseline-shift:baseline;color:#000000;fill:#000000;fill-opacity:1;stroke:none;stroke-width:1;marker:none;visibility:visible;display:inline;overflow:visible;enable-background:accumulate;font-family:Sans;-inkscape-font-specification:Sans" d="m -17.009746,1068.3622 -0.34308,0.343 -1.434698,1.4347 0.717349,0.6862 0.561403,-0.5614 0,4.1169 c 0,2.3247 -1.738627,4.2107 -3.992202,4.4601 l 0,-6.7992 0.561403,0.5614 0.717349,-0.6862 -1.434698,-1.4347 -0.34308,-0.3431 -0.34308,0.3431 -1.434698,1.4347 0.717349,0.6862 0.561404,-0.5614 0,6.7992 c -2.253576,-0.2494 -3.992203,-2.1354 -3.992203,-4.4601 l 0,-4.0857 0.561404,0.5614 0.717349,-0.7174 -1.434698,-1.4035 -0.34308,-0.3431 -0.34308,0.3431 -1.434698,1.4035 0.717349,0.7174 0.561403,-0.5614 0,4.0857 c 0,2.864 2.192178,5.237 4.990254,5.4893 l 0,1.4971 -2.495127,0 0,0.998 2.495127,0 0,1.9962 0.998051,0 0,-1.9962 2.495126,0 0,-0.998 -2.495126,0 0,-1.4971 c 2.798076,-0.2523 4.990253,-2.6253 4.990253,-5.4893 l 0,-4.1169 0.561403,0.5614 0.717349,-0.6862 -1.434697,-1.4347 -0.34308,-0.343 z" id="rect5154" inkscape:connector-curvature="0"/>
          </g>
        </g>
      </g>
    </g>
  </g>

	
	
	<metadata>
		<rdf:RDF xmlns:rdf="http://www.w3.org/1999/02/22-rdf-syntax-ns#" xmlns:rdfs="http://www.w3.org/2000/01/rdf-schema#" xmlns:dc="http://purl.org/dc/elements/1.1/">
			<rdf:Description about="https://iconscout.com/legal#licenses" dc:title="Neptune, Astronomical, Astrology, Horoscope, Zodiac, Sign, Symbol" dc:description="Neptune, Astronomical, Astrology, Horoscope, Zodiac, Sign, Symbol" dc:publisher="Iconscout" dc:date="2016-12-14" dc:format="image/svg+xml" dc:language="en">
				<dc:creator>
					<rdf:Bag>
						<rdf:li>Mohit Gandhi</rdf:li>
					</rdf:Bag>
				</dc:creator>
			</rdf:Description>
		</rdf:RDF>
    </metadata></svg>
