<?xml version="1.0" encoding="UTF-8" standalone="no"?>
<svg xmlns:dc="http://purl.org/dc/elements/1.1/" xmlns:cc="http://creativecommons.org/ns#" xmlns:rdf="http://www.w3.org/1999/02/22-rdf-syntax-ns#" xmlns:svg="http://www.w3.org/2000/svg" xmlns="http://www.w3.org/2000/svg" xmlns:sodipodi="http://sodipodi.sourceforge.net/DTD/sodipodi-0.dtd" xmlns:inkscape="http://www.inkscape.org/namespaces/inkscape" width="64px" height="64px" id="svg4193" version="1.1" inkscape:version="0.48.4 r9939" sodipodi:docname="5.svg">
  <defs id="defs4195"/>
  <sodipodi:namedview id="base" pagecolor="#ffffff" bordercolor="#666666" borderopacity="1.0" inkscape:pageopacity="0.0" inkscape:pageshadow="2" inkscape:zoom="11.313708" inkscape:cx="-12.57343" inkscape:cy="5.7865345" inkscape:document-units="px" inkscape:current-layer="g5023" showgrid="true" inkscape:window-width="1366" inkscape:window-height="705" inkscape:window-x="-8" inkscape:window-y="-8" inkscape:window-maximized="1" inkscape:snap-bbox="true" inkscape:bbox-paths="true" inkscape:bbox-nodes="true" inkscape:snap-bbox-edge-midpoints="true" inkscape:snap-bbox-midpoints="true">
    <inkscape:grid type="xygrid" id="grid4201" empspacing="5" visible="true" enabled="true" snapvisiblegridlinesonly="true"/>
  </sodipodi:namedview>
  
  <g inkscape:label="Layer 1" inkscape:groupmode="layer" id="layer1" transform="translate(0,-1036.3622)">
    <g transform="translate(-110.31406,-68.175491)" id="g4774">
      <g style="font-size:11.11111259px;font-style:normal;font-weight:normal;line-height:125%;letter-spacing:0px;word-spacing:0px;fill:#3bc689;fill-opacity:1;stroke:none;font-family:sans-serif" id="text10164-8-51"/>
      <g id="g4273" transform="translate(110.31406,61.625073)">
        <g id="g5023" transform="translate(4.029e-4,6.5504267)">
          <path style="font-size:medium;font-style:normal;font-variant:normal;font-weight:normal;font-stretch:normal;text-indent:0;text-align:start;text-decoration:none;line-height:normal;letter-spacing:normal;word-spacing:normal;text-transform:none;direction:ltr;block-progression:tb;writing-mode:lr-tb;text-anchor:start;baseline-shift:baseline;color:#000000;fill:#000000;fill-opacity:1;stroke:none;stroke-width:0.69096869;marker:none;visibility:visible;display:inline;overflow:visible;enable-background:accumulate;font-family:Sans;-inkscape-font-specification:Sans" d="m 1.8027505,1036.3621 a 0.49981388,0.49676851 0 0 0 -0.093419,0.031 0.49981388,0.49676851 0 0 0 -0.3113996,0.2493 0.49981388,0.49676851 0 0 0 0.1245599,0.6539 c 1.8109487,1.3856 2.9096619,3.9121 3.0517143,6.5705 l -2.5223352,0 a 0.49828886,0.49828886 0 0 0 -0.1556999,0 0.50428442,0.50428442 0 1 0 0.1556999,0.9964 l 2.5534753,0 c -0.047794,1.2357 -0.3130242,2.4723 -0.8096386,3.6124 -0.5419812,1.2438 -1.3611798,2.2603 -2.2732158,2.9583 a 0.52230552,0.51912308 0 1 0 0.6539387,0.8095 c 1.0671073,-0.8165 1.9216585,-1.9842 2.5223354,-3.3631 0.5561364,-1.2766 0.8426373,-2.6481 0.9030583,-4.0171 l 4.7955508,0 c 0.06043,1.369 0.346923,2.7405 0.903058,4.0171 0.600678,1.3789 1.455229,2.5466 2.522336,3.3631 a 0.52230552,0.51912308 0 1 0 0.653939,-0.8095 c -0.912036,-0.698 -1.731234,-1.7145 -2.273217,-2.9583 -0.496614,-1.1401 -0.761844,-2.3767 -0.809637,-3.6124 l 2.553475,0 a 0.49828886,0.49828886 0 1 0 0,-0.9964 l -2.522335,0 c 0.142052,-2.6584 1.240765,-5.1849 3.051714,-6.5705 a 0.49981388,0.49676851 0 0 0 0.124559,-0.6539 0.49981388,0.49676851 0 0 0 -0.311398,-0.2493 0.49981388,0.49676851 0 0 0 -0.4671,0.1246 c -2.125115,1.6262 -3.307574,4.4216 -3.425394,7.3491 l -4.7955508,0 c -0.1178198,-2.9275 -1.3002785,-5.7229 -3.4253937,-7.3491 a 0.49981388,0.49676851 0 0 0 -0.3736792,-0.1557 z" id="path4750" inkscape:connector-curvature="0"/>
        </g>
      </g>
    </g>
  </g>

	
	
	<metadata>
		<rdf:RDF xmlns:rdf="http://www.w3.org/1999/02/22-rdf-syntax-ns#" xmlns:rdfs="http://www.w3.org/2000/01/rdf-schema#" xmlns:dc="http://purl.org/dc/elements/1.1/">
			<rdf:Description about="https://iconscout.com/legal#licenses" dc:title="Pisces, Zodiac, Sign, Symbol, Horoscope, Astrology" dc:description="Pisces, Zodiac, Sign, Symbol, Horoscope, Astrology" dc:publisher="Iconscout" dc:date="2016-12-14" dc:format="image/svg+xml" dc:language="en">
				<dc:creator>
					<rdf:Bag>
						<rdf:li>Mohit Gandhi</rdf:li>
					</rdf:Bag>
				</dc:creator>
			</rdf:Description>
		</rdf:RDF>
    </metadata></svg>
