<?xml version="1.0" encoding="UTF-8" standalone="no"?>
<svg xmlns:dc="http://purl.org/dc/elements/1.1/" xmlns:cc="http://creativecommons.org/ns#" xmlns:rdf="http://www.w3.org/1999/02/22-rdf-syntax-ns#" xmlns:svg="http://www.w3.org/2000/svg" xmlns="http://www.w3.org/2000/svg" xmlns:sodipodi="http://sodipodi.sourceforge.net/DTD/sodipodi-0.dtd" xmlns:inkscape="http://www.inkscape.org/namespaces/inkscape" width="64px" height="64px" id="svg4193" version="1.1" inkscape:version="0.48.4 r9939" sodipodi:docname="20.svg">
  <defs id="defs4195"/>
  <sodipodi:namedview id="base" pagecolor="#ffffff" bordercolor="#666666" borderopacity="1.0" inkscape:pageopacity="0.0" inkscape:pageshadow="2" inkscape:zoom="11.313709" inkscape:cx="11.938052" inkscape:cy="-0.57860732" inkscape:document-units="px" inkscape:current-layer="g5177" showgrid="true" inkscape:window-width="1366" inkscape:window-height="705" inkscape:window-x="-8" inkscape:window-y="-8" inkscape:window-maximized="1" inkscape:snap-bbox="true" inkscape:bbox-paths="true" inkscape:bbox-nodes="true" inkscape:snap-bbox-edge-midpoints="true" inkscape:snap-bbox-midpoints="true" inkscape:snap-global="false">
    <inkscape:grid type="xygrid" id="grid4201" empspacing="5" visible="true" enabled="true" snapvisiblegridlinesonly="true"/>
  </sodipodi:namedview>
  
  <g inkscape:label="Layer 1" inkscape:groupmode="layer" id="layer1" transform="translate(0,-1036.3622)">
    <g transform="translate(-110.31406,-68.175491)" id="g4774">
      <g style="font-size:11.11111259px;font-style:normal;font-weight:normal;line-height:125%;letter-spacing:0px;word-spacing:0px;fill:#3bc689;fill-opacity:1;stroke:none;font-family:sans-serif" id="text10164-8-51"/>
      <g id="g4273" transform="translate(110.31406,61.625073)">
        <g id="g5023" transform="translate(4.029e-4,6.5504267)">
          <g transform="translate(29.999597,-31.999991)" id="g5177">
            <path style="font-size:medium;font-style:normal;font-variant:normal;font-weight:normal;font-stretch:normal;text-indent:0;text-align:start;text-decoration:none;line-height:normal;letter-spacing:normal;word-spacing:normal;text-transform:none;direction:ltr;block-progression:tb;writing-mode:lr-tb;text-anchor:start;baseline-shift:baseline;color:#000000;fill:#000000;fill-opacity:1;stroke:none;stroke-width:0.99999994px;marker:none;visibility:visible;display:inline;overflow:visible;enable-background:accumulate;font-family:Sans;-inkscape-font-specification:Sans" d="m -24.089792,1068.3622 0,2.4952 -2.994298,0 0,0.9981 2.994298,0 0,4.2419 c -0.0052,0.041 -0.0052,0.084 0,0.1248 l 0,5.1464 0.998099,0 0,-5.1776 c 3.25e-4,-0.01 3.25e-4,-0.021 0,-0.031 l 0,-0.062 c -10e-6,-0.9068 0.535758,-1.7086 1.372387,-2.0585 0.836604,-0.3501 1.787146,-0.169 2.432867,0.4678 0.645712,0.6368 0.868454,1.5913 0.53024,2.4328 l -0.779765,1.7156 c -0.381872,0.8787 -0.757702,1.7703 -1.122862,2.6511 -0.399061,0.7415 -0.34379,1.6537 0.187144,2.3081 0.53765,0.6628 1.450264,0.9234 2.245723,0.6238 0.795344,-0.2996 1.309996,-1.077 1.310006,-1.9338 0.0037,-0.2637 -0.235369,-0.5061 -0.49905,-0.5061 -0.263681,0 -0.502779,0.2424 -0.49905,0.5061 -6e-6,0.4544 -0.25915,0.849 -0.655002,0.9981 -0.395731,0.149 -0.84566,0.03 -1.122862,-0.3119 -0.277144,-0.3416 -0.310811,-0.8584 -0.09357,-1.2476 0.418301,-0.8706 0.796454,-1.7892 1.185243,-2.6824 0.259007,-0.5749 0.506692,-1.1722 0.748574,-1.7467 0.487221,-1.2122 0.212837,-2.6072 -0.717383,-3.5245 -0.465118,-0.4587 -1.037677,-0.7542 -1.653102,-0.8733 -0.615425,-0.1192 -1.268799,-0.065 -1.871437,0.1871 -0.38349,0.1604 -0.710629,0.4061 -0.998099,0.6862 l 0,-1.9338 2.994298,0 0,-0.9981 -2.994298,0 0,-2.4952 z" id="path5185" inkscape:connector-curvature="0" sodipodi:nodetypes="cccccccccccccscccsccscccccccccccccccc"/>
            <g transform="translate(133.52509,102.93226)" id="g5210">
              <g id="g5192" transform="translate(3,-21)">
                <path style="fill:none;stroke:#000000;stroke-width:0.99999994px;stroke-linecap:butt;stroke-linejoin:miter;stroke-opacity:1" d="m 13,1062.3935 0,-13.0313" id="path5185-1" inkscape:connector-curvature="0" sodipodi:nodetypes="cc"/>
                <path inkscape:connector-curvature="0" id="path5187-7" d="m 16.5,1052.3622 -7,0" style="fill:none;stroke:#000000;stroke-width:1px;stroke-linecap:butt;stroke-linejoin:miter;stroke-opacity:1"/>
              </g>
              <path style="color:#000000;fill:none;stroke:#000000;stroke-width:1;stroke-linecap:round;stroke-linejoin:round;stroke-miterlimit:4;stroke-opacity:1;stroke-dasharray:none;stroke-dashoffset:0;visibility:visible;display:inline;overflow:visible;enable-background:accumulate" d="m 16,1036.1122 c -1.2e-5,-1.1088 0.665846,-2.1091 1.688733,-2.537 1.022884,-0.4279 2.20267,-0.1996 2.992148,0.5789 0.789467,0.7785 1.034203,1.9549 0.6207,2.9837 l 0.0069,0.01 -1.931461,4.3755 c -0.317527,0.5689 -0.257175,1.2826 0.151027,1.7858 0.408202,0.5032 1.077062,0.6887 1.673791,0.464 0.596732,-0.2248 0.993908,-0.8116 0.993916,-1.4684" id="path5207-4" inkscape:connector-curvature="0" sodipodi:nodetypes="ccscccccc"/>
            </g>
          </g>
        </g>
      </g>
    </g>
  </g>

	
	
	<metadata>
		<rdf:RDF xmlns:rdf="http://www.w3.org/1999/02/22-rdf-syntax-ns#" xmlns:rdfs="http://www.w3.org/2000/01/rdf-schema#" xmlns:dc="http://purl.org/dc/elements/1.1/">
			<rdf:Description about="https://iconscout.com/legal#licenses" dc:title="Saturn, Astronomical, Astrology, Horoscope, Zodiac, Sign, Symbol" dc:description="Saturn, Astronomical, Astrology, Horoscope, Zodiac, Sign, Symbol" dc:publisher="Iconscout" dc:date="2016-12-14" dc:format="image/svg+xml" dc:language="en">
				<dc:creator>
					<rdf:Bag>
						<rdf:li>Mohit Gandhi</rdf:li>
					</rdf:Bag>
				</dc:creator>
			</rdf:Description>
		</rdf:RDF>
    </metadata></svg>
