<?xml version="1.0" encoding="UTF-8" standalone="no"?>
<svg xmlns:dc="http://purl.org/dc/elements/1.1/" xmlns:cc="http://creativecommons.org/ns#" xmlns:rdf="http://www.w3.org/1999/02/22-rdf-syntax-ns#" xmlns:svg="http://www.w3.org/2000/svg" xmlns="http://www.w3.org/2000/svg" xmlns:sodipodi="http://sodipodi.sourceforge.net/DTD/sodipodi-0.dtd" xmlns:inkscape="http://www.inkscape.org/namespaces/inkscape" width="64px" height="64px" id="svg4193" version="1.1" inkscape:version="0.48.4 r9939" sodipodi:docname="14.svg">
  <defs id="defs4195"/>
  <sodipodi:namedview id="base" pagecolor="#ffffff" bordercolor="#666666" borderopacity="1.0" inkscape:pageopacity="0.0" inkscape:pageshadow="2" inkscape:zoom="11.313708" inkscape:cx="5.5221756" inkscape:cy="4.4798369" inkscape:document-units="px" inkscape:current-layer="g5177" showgrid="true" inkscape:window-width="1366" inkscape:window-height="705" inkscape:window-x="-8" inkscape:window-y="-8" inkscape:window-maximized="1" inkscape:snap-bbox="true" inkscape:bbox-paths="true" inkscape:bbox-nodes="true" inkscape:snap-bbox-edge-midpoints="true" inkscape:snap-bbox-midpoints="true" inkscape:snap-global="false">
    <inkscape:grid type="xygrid" id="grid4201" empspacing="5" visible="true" enabled="true" snapvisiblegridlinesonly="true"/>
  </sodipodi:namedview>
  
  <g inkscape:label="Layer 1" inkscape:groupmode="layer" id="layer1" transform="translate(0,-1036.3622)">
    <g transform="translate(-110.31406,-68.175491)" id="g4774">
      <g style="font-size:11.11111259px;font-style:normal;font-weight:normal;line-height:125%;letter-spacing:0px;word-spacing:0px;fill:#3bc689;fill-opacity:1;stroke:none;font-family:sans-serif" id="text10164-8-51"/>
      <g id="g4273" transform="translate(110.31406,61.625073)">
        <g id="g5023" transform="translate(4.029e-4,6.5504267)">
          <g transform="translate(29.999597,-31.999991)" id="g5177">
            <path style="font-size:medium;font-style:normal;font-variant:normal;font-weight:normal;font-stretch:normal;text-indent:0;text-align:start;text-decoration:none;line-height:normal;letter-spacing:normal;word-spacing:normal;text-transform:none;direction:ltr;block-progression:tb;writing-mode:lr-tb;text-anchor:start;baseline-shift:baseline;color:#000000;fill:#000000;fill-opacity:1;stroke:none;stroke-width:1;marker:none;visibility:visible;display:inline;overflow:visible;enable-background:accumulate;font-family:Sans;-inkscape-font-specification:Sans" d="M 8 0 C 3.587649 0 0 3.5876 0 8 C 0 12.4123 3.587641 16 8 16 C 12.412359 16 16 12.4123 16 8 C 16 3.5876 12.412351 0 8 0 z M 8 1 C 11.871921 1 15 4.128 15 8 C 15 11.8719 11.871913 15 8 15 C 4.128087 15 1 11.8719 1 8 C 1 4.128 4.128079 1 8 1 z M 8 7 C 7.453707 7 7 7.4536 7 8 C 7 8.5464 7.453586 9 8 9 C 8.546414 9 9 8.5464 9 8 C 9 7.4536 8.546293 7 8 7 z " transform="translate(-30,1068.3622)" id="path5034"/>
          </g>
        </g>
      </g>
    </g>
  </g>

	
	
	<metadata>
		<rdf:RDF xmlns:rdf="http://www.w3.org/1999/02/22-rdf-syntax-ns#" xmlns:rdfs="http://www.w3.org/2000/01/rdf-schema#" xmlns:dc="http://purl.org/dc/elements/1.1/">
			<rdf:Description about="https://iconscout.com/legal#licenses" dc:title="Sun, Astronomical, Astrology, Horoscope, Zodiac, Sign, Symbol" dc:description="Sun, Astronomical, Astrology, Horoscope, Zodiac, Sign, Symbol" dc:publisher="Iconscout" dc:date="2016-12-14" dc:format="image/svg+xml" dc:language="en">
				<dc:creator>
					<rdf:Bag>
						<rdf:li>Mohit Gandhi</rdf:li>
					</rdf:Bag>
				</dc:creator>
			</rdf:Description>
		</rdf:RDF>
    </metadata></svg>
