<?xml version="1.0" encoding="UTF-8" standalone="no"?>
<svg xmlns:dc="http://purl.org/dc/elements/1.1/" xmlns:cc="http://creativecommons.org/ns#" xmlns:rdf="http://www.w3.org/1999/02/22-rdf-syntax-ns#" xmlns:svg="http://www.w3.org/2000/svg" xmlns="http://www.w3.org/2000/svg" xmlns:sodipodi="http://sodipodi.sourceforge.net/DTD/sodipodi-0.dtd" xmlns:inkscape="http://www.inkscape.org/namespaces/inkscape" width="64px" height="64px" id="svg4193" version="1.1" inkscape:version="0.48.4 r9939" sodipodi:docname="18.svg">
  <defs id="defs4195"/>
  <sodipodi:namedview id="base" pagecolor="#ffffff" bordercolor="#666666" borderopacity="1.0" inkscape:pageopacity="0.0" inkscape:pageshadow="2" inkscape:zoom="22.627417" inkscape:cx="8.2048249" inkscape:cy="5.4297902" inkscape:document-units="px" inkscape:current-layer="g5177" showgrid="true" inkscape:window-width="1366" inkscape:window-height="705" inkscape:window-x="-8" inkscape:window-y="-8" inkscape:window-maximized="1" inkscape:snap-bbox="true" inkscape:bbox-paths="true" inkscape:bbox-nodes="true" inkscape:snap-bbox-edge-midpoints="true" inkscape:snap-bbox-midpoints="true" inkscape:snap-global="true">
    <inkscape:grid type="xygrid" id="grid4201" empspacing="5" visible="true" enabled="true" snapvisiblegridlinesonly="true"/>
  </sodipodi:namedview>
  
  <g inkscape:label="Layer 1" inkscape:groupmode="layer" id="layer1" transform="translate(0,-1036.3622)">
    <g transform="translate(-110.31406,-68.175491)" id="g4774">
      <g style="font-size:11.11111259px;font-style:normal;font-weight:normal;line-height:125%;letter-spacing:0px;word-spacing:0px;fill:#3bc689;fill-opacity:1;stroke:none;font-family:sans-serif" id="text10164-8-51"/>
      <g id="g4273" transform="translate(110.31406,61.625073)">
        <g id="g5023" transform="translate(4.029e-4,6.5504267)">
          <g transform="translate(29.999597,-31.999991)" id="g5177">
            <path style="font-size:medium;font-style:normal;font-variant:normal;font-weight:normal;font-stretch:normal;text-indent:0;text-align:start;text-decoration:none;line-height:normal;letter-spacing:normal;word-spacing:normal;text-transform:none;direction:ltr;block-progression:tb;writing-mode:lr-tb;text-anchor:start;baseline-shift:baseline;color:#000000;fill:#000000;fill-opacity:1;stroke:none;stroke-width:1px;marker:none;visibility:visible;display:inline;overflow:visible;enable-background:accumulate;font-family:Sans;-inkscape-font-specification:Sans" d="m -22,1068.3622 -0.34308,0.3742 -2.838206,2.807 0.717349,0.7174 1.964912,-1.9961 0,4.1481 c -2.51214,0.2562 -4.491228,2.3809 -4.491228,4.9591 0,2.7501 2.24013,4.9903 4.990253,4.9903 2.750124,0 4.990254,-2.2402 4.990254,-4.9903 0,-2.5782 -1.979088,-4.7029 -4.491228,-4.9591 l 0,-4.1481 1.964912,1.9961 0.717349,-0.7174 -2.838207,-2.807 L -22,1068.3622 z m 0,7.0175 c 2.210742,0 3.992203,1.7814 3.992203,3.9922 0,2.2108 -1.781461,3.9922 -3.992203,3.9922 -2.210741,0 -3.992202,-1.7814 -3.992202,-3.9922 0,-2.2108 1.781461,-3.9922 3.992202,-3.9922 z m 0,2.9941 c -0.545228,0 -0.99805,0.4528 -0.99805,0.9981 0,0.5453 0.452702,0.998 0.99805,0.998 0.545349,0 0.998051,-0.4527 0.998051,-0.998 0,-0.5453 -0.452822,-0.9981 -0.998051,-0.9981 z" id="path5137" inkscape:connector-curvature="0"/>
          </g>
        </g>
      </g>
    </g>
  </g>

	
	
	<metadata>
		<rdf:RDF xmlns:rdf="http://www.w3.org/1999/02/22-rdf-syntax-ns#" xmlns:rdfs="http://www.w3.org/2000/01/rdf-schema#" xmlns:dc="http://purl.org/dc/elements/1.1/">
			<rdf:Description about="https://iconscout.com/legal#licenses" dc:title="Uranus, Astronomical, Astrology, Horoscope, Zodiac, Sign, Symbol" dc:description="Uranus, Astronomical, Astrology, Horoscope, Zodiac, Sign, Symbol" dc:publisher="Iconscout" dc:date="2016-12-14" dc:format="image/svg+xml" dc:language="en">
				<dc:creator>
					<rdf:Bag>
						<rdf:li>Mohit Gandhi</rdf:li>
					</rdf:Bag>
				</dc:creator>
			</rdf:Description>
		</rdf:RDF>
    </metadata></svg>
