<?xml version="1.0" encoding="UTF-8" standalone="no"?>
<svg xmlns:dc="http://purl.org/dc/elements/1.1/" xmlns:cc="http://creativecommons.org/ns#" xmlns:rdf="http://www.w3.org/1999/02/22-rdf-syntax-ns#" xmlns:svg="http://www.w3.org/2000/svg" xmlns="http://www.w3.org/2000/svg" xmlns:sodipodi="http://sodipodi.sourceforge.net/DTD/sodipodi-0.dtd" xmlns:inkscape="http://www.inkscape.org/namespaces/inkscape" width="64px" height="64px" id="svg4193" version="1.1" inkscape:version="0.48.4 r9939" sodipodi:docname="12.svg">
  <defs id="defs4195"/>
  <sodipodi:namedview id="base" pagecolor="#ffffff" bordercolor="#666666" borderopacity="1.0" inkscape:pageopacity="0.0" inkscape:pageshadow="2" inkscape:zoom="32" inkscape:cx="11.267316" inkscape:cy="7.8177615" inkscape:document-units="px" inkscape:current-layer="g5023" showgrid="true" inkscape:window-width="1366" inkscape:window-height="705" inkscape:window-x="-8" inkscape:window-y="-8" inkscape:window-maximized="1" inkscape:snap-bbox="true" inkscape:bbox-paths="true" inkscape:bbox-nodes="true" inkscape:snap-bbox-edge-midpoints="true" inkscape:snap-bbox-midpoints="true" inkscape:snap-global="false">
    <inkscape:grid type="xygrid" id="grid4201" empspacing="5" visible="true" enabled="true" snapvisiblegridlinesonly="true"/>
  </sodipodi:namedview>
  
  <g inkscape:label="Layer 1" inkscape:groupmode="layer" id="layer1" transform="translate(0,-1036.3622)">
    <g transform="translate(-110.31406,-68.175491)" id="g4774">
      <g style="font-size:11.11111259px;font-style:normal;font-weight:normal;line-height:125%;letter-spacing:0px;word-spacing:0px;fill:#3bc689;fill-opacity:1;stroke:none;font-family:sans-serif" id="text10164-8-51"/>
      <g id="g4273" transform="translate(110.31406,61.625073)">
        <g id="g5023" transform="translate(4.029e-4,6.5504267)">
          <path style="font-size:medium;font-style:normal;font-variant:normal;font-weight:normal;font-stretch:normal;text-indent:0;text-align:start;text-decoration:none;line-height:normal;letter-spacing:normal;word-spacing:normal;text-transform:none;direction:ltr;block-progression:tb;writing-mode:lr-tb;text-anchor:start;baseline-shift:baseline;color:#000000;fill:#000000;fill-opacity:1;stroke:none;stroke-width:1px;marker:none;visibility:visible;display:inline;overflow:visible;enable-background:accumulate;font-family:Sans;-inkscape-font-specification:Sans" d="M 5.34375 1.53125 C 5.2047699 1.5346953 5.0582752 1.568475 4.90625 1.65625 C 4.5695521 1.79565 4.2918585 2.03085 4.0625 2.28125 C 3.8790132 2.48165 3.7174735 2.69935 3.5625 2.90625 C 3.3914013 2.69605 3.2004895 2.49905 3 2.34375 C 2.5108056 1.96475 1.966487 1.6874 1.75 1.5625 L 1.25 2.4375 C 1.533513 2.6012 1.9891944 2.8262 2.375 3.125 C 2.7608056 3.4239 3 3.75 3 4 L 3 12 L 4 12 L 4 4 C 4.2825346 3.6444 4.5496818 3.25575 4.8125 2.96875 C 4.9921775 2.77255 5.1686807 2.64035 5.28125 2.59375 C 5.4373457 2.48145 5.5593592 2.6575 5.6875 2.6875 C 5.6875 2.6875 6.3023453 3.0302 6.5625 3.25 C 6.8334757 3.4791 7 3.681 7 4 L 7 12 L 8 12 L 8 4 C 8.2825346 3.6444 8.5496818 3.25575 8.8125 2.96875 C 8.9921775 2.77255 9.1686807 2.64035 9.28125 2.59375 C 9.3938193 2.54675 9.53125 2.59375 9.53125 2.59375 L 9.6875 2.6875 C 9.6875 2.6875 10.302345 3.0302 10.5625 3.25 C 10.833476 3.4791 11 3.681 11 4 L 11 7.21875 L 11 11.90625 L 11 12 C 11.0085 12.3048 11.07306 12.59285 11.15625 12.84375 C 10.784807 12.96005 10.396515 13.03125 10 13.03125 C 9.7358437 13.03125 9.5 13.26705 9.5 13.53125 C 9.5 13.79545 9.7358437 14.03495 10 14.03125 C 10.579524 14.03125 11.150109 13.91215 11.6875 13.71875 C 11.72931 13.76075 11.76772 13.80675 11.8125 13.84375 C 12.305042 14.25425 12.916667 14.40625 13.5 14.40625 L 13.5 13.40625 C 13.1875 13.40625 12.893627 13.3682 12.65625 13.25 C 12.904902 13.0929 13.155458 12.91915 13.375 12.71875 C 15.410036 10.86095 15.545297 7.69135 13.6875 5.65625 C 13.59093 5.53545 13.435803 5.46385 13.28125 5.46875 C 13.132024 5.48075 12.989991 5.5637 12.90625 5.6875 L 12 6.40625 L 12 4 C 12 3.3191 11.615743 2.80425 11.21875 2.46875 C 10.821757 2.13325 10.15625 1.8125 10.15625 1.8125 C 9.7499274 1.631 9.369349 1.53215 8.90625 1.65625 C 8.5695521 1.79565 8.2918585 2.03085 8.0625 2.28125 C 7.8846073 2.47555 7.7136607 2.6736 7.5625 2.875 C 7.4512586 2.7334 7.3442857 2.57485 7.21875 2.46875 C 6.8217568 2.13325 6.15625 1.8125 6.15625 1.8125 C 6.0918138 1.79675 5.7606904 1.5209141 5.34375 1.53125 z M 13.25 6.6875 C 14.415728 8.3152 14.204572 10.58385 12.6875 11.96875 C 12.496064 12.14355 12.279993 12.3028 12.0625 12.4375 C 12.03471 12.3143 12.00503 12.1614 12 12 C 11.999 11.968 12 11.94025 12 11.90625 L 12 7.6875 L 13.25 6.6875 z " transform="translate(-4.029e-4,1036.3622)" id="path4947"/>
        </g>
      </g>
    </g>
  </g>

	
	
	<metadata>
		<rdf:RDF xmlns:rdf="http://www.w3.org/1999/02/22-rdf-syntax-ns#" xmlns:rdfs="http://www.w3.org/2000/01/rdf-schema#" xmlns:dc="http://purl.org/dc/elements/1.1/">
			<rdf:Description about="https://iconscout.com/legal#licenses" dc:title="Virgo, Zodiac, Horoscope, Astrology, Sign, Symbol" dc:description="Virgo, Zodiac, Horoscope, Astrology, Sign, Symbol" dc:publisher="Iconscout" dc:date="2016-12-14" dc:format="image/svg+xml" dc:language="en">
				<dc:creator>
					<rdf:Bag>
						<rdf:li>Mohit Gandhi</rdf:li>
					</rdf:Bag>
				</dc:creator>
			</rdf:Description>
		</rdf:RDF>
    </metadata></svg>
